<svg width="102" height="49" viewBox="0 0 102 49" fill="none" xmlns="http://www.w3.org/2000/svg">
<path d="M0 12.403H2.90834V26.2362H0V12.403Z" fill="#2F80ED"/>
<path d="M14.6868 21.2585C14.6868 21.2958 14.6681 21.5568 14.6308 22.0415H7.04305C7.17977 22.6629 7.50292 23.1539 8.0125 23.5143C8.52208 23.8747 9.15595 24.055 9.91411 24.055C10.4361 24.055 10.896 23.9804 11.2937 23.8312C11.7039 23.6697 12.0829 23.4211 12.4309 23.0855L13.9783 24.7634C13.0337 25.8447 11.6541 26.3854 9.83953 26.3854C8.70851 26.3854 7.70799 26.1679 6.83798 25.7328C5.96796 25.2854 5.29681 24.6702 4.82451 23.8872C4.35222 23.1042 4.11607 22.2155 4.11607 21.2212C4.11607 20.2393 4.346 19.3569 4.80587 18.5739C5.27816 17.7784 5.91825 17.1632 6.72612 16.7282C7.54642 16.2807 8.45994 16.057 9.46667 16.057C10.4485 16.057 11.3372 16.2683 12.1326 16.6909C12.9281 17.1135 13.5495 17.7225 13.997 18.5179C14.4568 19.3009 14.6868 20.2145 14.6868 21.2585ZM9.48531 18.2569C8.82659 18.2569 8.27351 18.4434 7.82607 18.8162C7.37863 19.1891 7.1052 19.6987 7.00577 20.345H11.9462C11.8468 19.7111 11.5734 19.2077 11.1259 18.8349C10.6785 18.4496 10.1316 18.2569 9.48531 18.2569Z" fill="#2F80ED"/>
<path d="M22.3465 25.7515C22.0606 25.9628 21.7064 26.1244 21.2838 26.2362C20.8737 26.3356 20.4387 26.3854 19.9788 26.3854C18.7857 26.3854 17.8597 26.0809 17.201 25.4718C16.5547 24.8628 16.2315 23.968 16.2315 22.7872V18.6671H14.6841V16.4299H16.2315V13.9876H19.1399V16.4299H21.6381V18.6671H19.1399V22.7499C19.1399 23.1725 19.2455 23.5019 19.4568 23.738C19.6805 23.9617 19.9912 24.0736 20.389 24.0736C20.8488 24.0736 21.2403 23.9493 21.5635 23.7007L22.3465 25.7515Z" fill="#2F80ED"/>
<path d="M36.0785 16.057C37.3338 16.057 38.3282 16.4299 39.0615 17.1756C39.8072 17.9089 40.18 19.0151 40.18 20.4941V26.2362H37.2717V20.9415C37.2717 20.1461 37.1039 19.5557 36.7683 19.1704C36.4452 18.7727 35.9791 18.5739 35.3701 18.5739C34.6865 18.5739 34.1459 18.7976 33.7481 19.245C33.3504 19.68 33.1516 20.3325 33.1516 21.2025V26.2362H30.2432V20.9415C30.2432 19.3631 29.6093 18.5739 28.3416 18.5739C27.6705 18.5739 27.136 18.7976 26.7383 19.245C26.3406 19.68 26.1417 20.3325 26.1417 21.2025V26.2362H23.2334V16.2062H26.0112V17.362C26.3841 16.9395 26.8377 16.6163 27.3722 16.3926C27.919 16.1689 28.5156 16.057 29.1619 16.057C29.8703 16.057 30.5104 16.2 31.0822 16.4858C31.6539 16.7593 32.1137 17.1632 32.4618 17.6976C32.8719 17.1756 33.3877 16.7717 34.0091 16.4858C34.643 16.2 35.3328 16.057 36.0785 16.057Z" fill="#2F80ED"/>
<path d="M51.9754 21.2585C51.9754 21.2958 51.9567 21.5568 51.9194 22.0415H44.3316C44.4684 22.6629 44.7915 23.1539 45.3011 23.5143C45.8107 23.8747 46.4445 24.055 47.2027 24.055C47.7247 24.055 48.1846 23.9804 48.5823 23.8312C48.9925 23.6697 49.3715 23.4211 49.7195 23.0855L51.2669 24.7634C50.3223 25.8447 48.9427 26.3854 47.1281 26.3854C45.9971 26.3854 44.9966 26.1679 44.1266 25.7328C43.2566 25.2854 42.5854 24.6702 42.1131 23.8872C41.6408 23.1042 41.4047 22.2155 41.4047 21.2212C41.4047 20.2393 41.6346 19.3569 42.0945 18.5739C42.5668 17.7784 43.2068 17.1632 44.0147 16.7282C44.835 16.2807 45.7485 16.057 46.7553 16.057C47.7371 16.057 48.6258 16.2683 49.4212 16.6909C50.2167 17.1135 50.8381 17.7225 51.2856 18.5179C51.7454 19.3009 51.9754 20.2145 51.9754 21.2585ZM46.7739 18.2569C46.1152 18.2569 45.5621 18.4434 45.1147 18.8162C44.6672 19.1891 44.3938 19.6987 44.2944 20.345H49.2348C49.1354 19.7111 48.8619 19.2077 48.4145 18.8349C47.9671 18.4496 47.4202 18.2569 46.7739 18.2569Z" fill="#2F80ED"/>
<path d="M68.9797 16.2062L66.9849 26.2362H64.2257L64.4121 25.2481C63.5794 26.0063 62.554 26.3854 61.336 26.3854C60.553 26.3854 59.8321 26.2051 59.1734 25.8447C58.5146 25.4843 57.9864 24.9685 57.5887 24.2973C57.2034 23.6137 57.0107 22.8121 57.0107 21.8923C57.0107 20.7862 57.2531 19.7919 57.7378 18.9094C58.235 18.0146 58.9061 17.3185 59.7513 16.8214C60.5965 16.3118 61.5286 16.057 62.5478 16.057C64.0889 16.057 65.1765 16.5604 65.8103 17.5671L66.0713 16.2062H68.9797ZM62.2308 23.9804C62.8026 23.9804 63.3121 23.8437 63.7596 23.5702C64.207 23.2844 64.555 22.8929 64.8036 22.3957C65.0522 21.8986 65.1765 21.3268 65.1765 20.6805C65.1765 19.997 64.9714 19.4563 64.5612 19.0586C64.1635 18.6609 63.6042 18.462 62.8834 18.462C62.3116 18.462 61.802 18.6049 61.3546 18.8908C60.9072 19.1642 60.5592 19.5495 60.3106 20.0467C60.062 20.5438 59.9377 21.1155 59.9377 21.7618C59.9377 22.4454 60.1366 22.9861 60.5343 23.3838C60.9445 23.7815 61.51 23.9804 62.2308 23.9804Z" fill="#485BFF"/>
<path d="M72.5858 26.3854C71.7158 26.3854 70.8893 26.2921 70.1063 26.1057C69.3357 25.9069 68.7329 25.6521 68.2979 25.3413L69.4165 23.2347C69.8515 23.5205 70.3797 23.7505 71.0012 23.9245C71.635 24.0985 72.2689 24.1855 72.9028 24.1855C73.5615 24.1855 74.0524 24.1047 74.3756 23.9431C74.6987 23.7691 74.8603 23.5267 74.8603 23.216C74.8603 22.9674 74.7174 22.7872 74.4315 22.6754C74.1456 22.5635 73.6858 22.4454 73.0519 22.3211C72.331 22.1844 71.7345 22.0353 71.2622 21.8737C70.8023 21.7121 70.3984 21.4511 70.0504 21.0907C69.7148 20.7178 69.547 20.2145 69.547 19.5806C69.547 18.4744 70.0069 17.6106 70.9266 16.9892C71.8587 16.3677 73.0768 16.057 74.5807 16.057C75.2767 16.057 75.954 16.1316 76.6128 16.2807C77.2715 16.4299 77.8308 16.635 78.2907 16.896L77.2466 19.0213C76.4263 18.5117 75.4382 18.2569 74.2824 18.2569C73.6485 18.2569 73.1638 18.3501 72.8282 18.5366C72.505 18.723 72.3435 18.9591 72.3435 19.245C72.3435 19.506 72.4864 19.6987 72.7723 19.823C73.0581 19.9348 73.5366 20.0591 74.2078 20.1958C74.9162 20.3325 75.4942 20.4817 75.9416 20.6433C76.4015 20.7924 76.7992 21.0472 77.1348 21.4076C77.4704 21.7681 77.6381 22.259 77.6381 22.8804C77.6381 23.999 77.1658 24.8628 76.2213 25.4718C75.2891 26.0809 74.0773 26.3854 72.5858 26.3854Z" fill="#485BFF"/>
<path d="M85.5662 20.5687L89.0152 26.2362H85.6407L83.2544 22.3398L81.4833 23.8126L80.9986 26.2362H78.0902L80.8494 12.403H83.7578L82.2104 20.1399L87.0203 16.2062H90.8049L85.5662 20.5687Z" fill="#485BFF"/>
<path d="M52.7231 10.3894V5.72864C52.7231 3.66937 54.3925 2 56.4518 2H96.5347C98.5939 2 100.263 3.66937 100.263 5.72864V31.8291C100.263 33.8884 98.5939 35.5578 96.5347 35.5578H90.0096L92.1902 45.7343C92.3808 46.6238 91.3149 47.2316 90.6465 46.6146L80.688 37.4221H56.4518C54.3925 37.4221 52.7231 35.7527 52.7231 33.6935V31.8291" stroke="#485BFF" stroke-width="2.79648"/>
</svg>
